<mxfile host="app.diagrams.net" modified="2021-09-28T19:19:08.729Z" agent="5.0 (Windows NT 10.0; Win64; x64) AppleWebKit/537.36 (KHTML, like Gecko) Chrome/92.0.4515.131 Safari/537.36 OPR/78.0.4093.186" etag="3U1KNS538gWzI40FRzMP" version="15.3.5" type="github">
  <diagram id="Y_LIH-g68aqcCREC1dFv" name="Page-1">
    <mxGraphModel dx="2302" dy="1388" grid="1" gridSize="10" guides="1" tooltips="1" connect="1" arrows="1" fold="1" page="1" pageScale="1" pageWidth="827" pageHeight="1169" math="0" shadow="0">
      <root>
        <mxCell id="0" />
        <mxCell id="1" parent="0" />
        <mxCell id="S6kM-z7FGtX7wg2L0dCq-1" value="Начало" style="rounded=1;whiteSpace=wrap;html=1;" parent="1" vertex="1">
          <mxGeometry x="350" width="120" height="30" as="geometry" />
        </mxCell>
        <mxCell id="S6kM-z7FGtX7wg2L0dCq-2" value="" style="endArrow=none;html=1;entryX=0.5;entryY=1;entryDx=0;entryDy=0;" parent="1" target="S6kM-z7FGtX7wg2L0dCq-1" edge="1">
          <mxGeometry width="50" height="50" relative="1" as="geometry">
            <mxPoint x="410" y="40" as="sourcePoint" />
            <mxPoint x="436" y="110" as="targetPoint" />
          </mxGeometry>
        </mxCell>
        <mxCell id="S6kM-z7FGtX7wg2L0dCq-4" value="Закрузка слов из файла в память" style="rounded=0;whiteSpace=wrap;html=1;" parent="1" vertex="1">
          <mxGeometry x="350" y="40" width="120" height="60" as="geometry" />
        </mxCell>
        <mxCell id="S6kM-z7FGtX7wg2L0dCq-9" value="Выбор типа текста" style="rhombus;whiteSpace=wrap;html=1;" parent="1" vertex="1">
          <mxGeometry x="475" y="190" width="120" height="80" as="geometry" />
        </mxCell>
        <mxCell id="S6kM-z7FGtX7wg2L0dCq-10" value="" style="endArrow=none;html=1;exitX=0.5;exitY=0;exitDx=0;exitDy=0;" parent="1" source="S6kM-z7FGtX7wg2L0dCq-9" edge="1">
          <mxGeometry width="50" height="50" relative="1" as="geometry">
            <mxPoint x="517.5" y="180" as="sourcePoint" />
            <mxPoint x="535.5" y="160" as="targetPoint" />
          </mxGeometry>
        </mxCell>
        <mxCell id="S6kM-z7FGtX7wg2L0dCq-15" value="&amp;nbsp;осмысленный текст" style="text;html=1;strokeColor=none;fillColor=none;align=center;verticalAlign=middle;whiteSpace=wrap;rounded=0;" parent="1" vertex="1">
          <mxGeometry x="765" y="290" width="40" height="20" as="geometry" />
        </mxCell>
        <mxCell id="S6kM-z7FGtX7wg2L0dCq-18" value="Случайная генерация слов" style="text;html=1;strokeColor=none;fillColor=none;align=center;verticalAlign=middle;whiteSpace=wrap;rounded=0;" parent="1" vertex="1">
          <mxGeometry x="345" y="290" width="40" height="20" as="geometry" />
        </mxCell>
        <mxCell id="S6kM-z7FGtX7wg2L0dCq-19" value="Пользовательский текст" style="text;html=1;strokeColor=none;fillColor=none;align=center;verticalAlign=middle;whiteSpace=wrap;rounded=0;" parent="1" vertex="1">
          <mxGeometry x="575" y="290" width="40" height="20" as="geometry" />
        </mxCell>
        <mxCell id="S6kM-z7FGtX7wg2L0dCq-24" value="" style="endArrow=none;html=1;" parent="1" edge="1">
          <mxGeometry width="50" height="50" relative="1" as="geometry">
            <mxPoint x="535" y="280" as="sourcePoint" />
            <mxPoint x="535" y="270" as="targetPoint" />
          </mxGeometry>
        </mxCell>
        <mxCell id="S6kM-z7FGtX7wg2L0dCq-25" value="" style="endArrow=none;html=1;" parent="1" edge="1">
          <mxGeometry width="50" height="50" relative="1" as="geometry">
            <mxPoint x="325" y="280" as="sourcePoint" />
            <mxPoint x="535" y="280" as="targetPoint" />
          </mxGeometry>
        </mxCell>
        <mxCell id="S6kM-z7FGtX7wg2L0dCq-29" value="" style="endArrow=none;html=1;" parent="1" edge="1">
          <mxGeometry width="50" height="50" relative="1" as="geometry">
            <mxPoint x="525" y="280" as="sourcePoint" />
            <mxPoint x="745" y="280" as="targetPoint" />
          </mxGeometry>
        </mxCell>
        <mxCell id="S6kM-z7FGtX7wg2L0dCq-38" value="" style="endArrow=none;html=1;startArrow=open;startFill=0;exitX=0.5;exitY=0;exitDx=0;exitDy=0;" parent="1" source="S6kM-z7FGtX7wg2L0dCq-47" edge="1">
          <mxGeometry width="50" height="50" relative="1" as="geometry">
            <mxPoint x="315" y="300" as="sourcePoint" />
            <mxPoint x="325" y="280" as="targetPoint" />
          </mxGeometry>
        </mxCell>
        <mxCell id="S6kM-z7FGtX7wg2L0dCq-41" value="Ввод текста" style="shape=parallelogram;perimeter=parallelogramPerimeter;whiteSpace=wrap;html=1;fixedSize=1;" parent="1" vertex="1">
          <mxGeometry x="465" y="320" width="140" height="60" as="geometry" />
        </mxCell>
        <mxCell id="S6kM-z7FGtX7wg2L0dCq-42" value="&lt;p style=&quot;line-height: 120%&quot;&gt;&amp;nbsp; &amp;nbsp; Пользователь выбирает сложность&lt;/p&gt;" style="shape=parallelogram;perimeter=parallelogramPerimeter;whiteSpace=wrap;html=1;fixedSize=1;align=center;" parent="1" vertex="1">
          <mxGeometry x="257.5" y="600" width="140" height="60" as="geometry" />
        </mxCell>
        <mxCell id="S6kM-z7FGtX7wg2L0dCq-46" value="Пользователь&amp;nbsp; выбирает способ завершения&amp;nbsp; набора текста" style="shape=parallelogram;perimeter=parallelogramPerimeter;whiteSpace=wrap;html=1;fixedSize=1;align=center;" parent="1" vertex="1">
          <mxGeometry x="255" y="670" width="140" height="60" as="geometry" />
        </mxCell>
        <mxCell id="S6kM-z7FGtX7wg2L0dCq-52" style="edgeStyle=orthogonalEdgeStyle;rounded=0;orthogonalLoop=1;jettySize=auto;html=1;exitX=0.5;exitY=0;exitDx=0;exitDy=0;startArrow=open;startFill=0;endArrow=open;endFill=0;" parent="1" source="S6kM-z7FGtX7wg2L0dCq-47" edge="1">
          <mxGeometry relative="1" as="geometry">
            <mxPoint x="324.7142857142858" y="319.7142857142858" as="targetPoint" />
          </mxGeometry>
        </mxCell>
        <mxCell id="S6kM-z7FGtX7wg2L0dCq-47" value="&amp;nbsp; &amp;nbsp; &amp;nbsp; &amp;nbsp; &amp;nbsp; Пользователь&amp;nbsp; &amp;nbsp; &amp;nbsp; &amp;nbsp; &amp;nbsp; &amp;nbsp;выбирает наличие&amp;nbsp; &amp;nbsp; &amp;nbsp; знаков препинания в&amp;nbsp; тексте" style="shape=parallelogram;perimeter=parallelogramPerimeter;whiteSpace=wrap;fixedSize=1;align=center;size=20;html=1;textDirection=ltr;" parent="1" vertex="1">
          <mxGeometry x="250" y="320" width="150" height="60" as="geometry" />
        </mxCell>
        <mxCell id="S6kM-z7FGtX7wg2L0dCq-51" value="" style="endArrow=none;html=1;" parent="1" edge="1">
          <mxGeometry width="50" height="50" relative="1" as="geometry">
            <mxPoint x="325" y="390" as="sourcePoint" />
            <mxPoint x="325" y="380" as="targetPoint" />
          </mxGeometry>
        </mxCell>
        <mxCell id="S6kM-z7FGtX7wg2L0dCq-53" value="&amp;nbsp; &amp;nbsp; Пользователь выбирает наличие заглавных букв в&amp;nbsp; &amp;nbsp; тексте" style="shape=parallelogram;perimeter=parallelogramPerimeter;whiteSpace=wrap;html=1;fixedSize=1;align=center;" parent="1" vertex="1">
          <mxGeometry x="255" y="390" width="145" height="60" as="geometry" />
        </mxCell>
        <mxCell id="S6kM-z7FGtX7wg2L0dCq-54" value="" style="endArrow=none;html=1;entryX=0.484;entryY=1.003;entryDx=0;entryDy=0;entryPerimeter=0;" parent="1" target="S6kM-z7FGtX7wg2L0dCq-53" edge="1">
          <mxGeometry width="50" height="50" relative="1" as="geometry">
            <mxPoint x="325" y="460" as="sourcePoint" />
            <mxPoint x="328" y="450" as="targetPoint" />
          </mxGeometry>
        </mxCell>
        <mxCell id="S6kM-z7FGtX7wg2L0dCq-55" value="Пользователь&amp;nbsp; выбирает наличие&amp;nbsp; спец. символов&amp;nbsp; в тексте" style="shape=parallelogram;perimeter=parallelogramPerimeter;whiteSpace=wrap;html=1;fixedSize=1;align=center;" parent="1" vertex="1">
          <mxGeometry x="255" y="460" width="140" height="60" as="geometry" />
        </mxCell>
        <mxCell id="S6kM-z7FGtX7wg2L0dCq-57" value="" style="endArrow=none;html=1;entryX=0.484;entryY=1.003;entryDx=0;entryDy=0;entryPerimeter=0;" parent="1" edge="1">
          <mxGeometry width="50" height="50" relative="1" as="geometry">
            <mxPoint x="325" y="529.8199999999999" as="sourcePoint" />
            <mxPoint x="325.18000000000006" y="520" as="targetPoint" />
          </mxGeometry>
        </mxCell>
        <mxCell id="S6kM-z7FGtX7wg2L0dCq-58" value="Пользователь&amp;nbsp; выбирает наличие&amp;nbsp; цифр&amp;nbsp; в тексте" style="shape=parallelogram;perimeter=parallelogramPerimeter;whiteSpace=wrap;html=1;fixedSize=1;align=center;" parent="1" vertex="1">
          <mxGeometry x="255" y="529.8199999999999" width="140" height="60" as="geometry" />
        </mxCell>
        <mxCell id="S6kM-z7FGtX7wg2L0dCq-59" value="" style="endArrow=none;html=1;entryX=0.5;entryY=1;entryDx=0;entryDy=0;" parent="1" target="S6kM-z7FGtX7wg2L0dCq-58" edge="1">
          <mxGeometry width="50" height="50" relative="1" as="geometry">
            <mxPoint x="325" y="600" as="sourcePoint" />
            <mxPoint x="315" y="660" as="targetPoint" />
          </mxGeometry>
        </mxCell>
        <mxCell id="S6kM-z7FGtX7wg2L0dCq-68" value="" style="endArrow=none;html=1;entryX=0.5;entryY=1;entryDx=0;entryDy=0;" parent="1" target="S6kM-z7FGtX7wg2L0dCq-46" edge="1">
          <mxGeometry width="50" height="50" relative="1" as="geometry">
            <mxPoint x="325" y="740" as="sourcePoint" />
            <mxPoint x="305" y="846.5" as="targetPoint" />
          </mxGeometry>
        </mxCell>
        <mxCell id="S6kM-z7FGtX7wg2L0dCq-70" value="" style="endArrow=none;html=1;exitX=0.5;exitY=0;exitDx=0;exitDy=0;startArrow=open;startFill=0;" parent="1" source="S6kM-z7FGtX7wg2L0dCq-41" edge="1">
          <mxGeometry width="50" height="50" relative="1" as="geometry">
            <mxPoint x="675" y="440" as="sourcePoint" />
            <mxPoint x="535" y="280" as="targetPoint" />
          </mxGeometry>
        </mxCell>
        <mxCell id="S6kM-z7FGtX7wg2L0dCq-74" value="" style="endArrow=none;html=1;exitX=0.5;exitY=0;exitDx=0;exitDy=0;startArrow=open;startFill=0;" parent="1" source="S6kM-z7FGtX7wg2L0dCq-88" edge="1">
          <mxGeometry width="50" height="50" relative="1" as="geometry">
            <mxPoint x="745" y="600" as="sourcePoint" />
            <mxPoint x="745" y="280" as="targetPoint" />
          </mxGeometry>
        </mxCell>
        <mxCell id="S6kM-z7FGtX7wg2L0dCq-76" value="" style="endArrow=open;html=1;endFill=0;" parent="1" edge="1">
          <mxGeometry width="50" height="50" relative="1" as="geometry">
            <mxPoint x="525" y="740" as="sourcePoint" />
            <mxPoint x="525" y="780" as="targetPoint" />
          </mxGeometry>
        </mxCell>
        <mxCell id="S6kM-z7FGtX7wg2L0dCq-77" value="" style="endArrow=none;html=1;" parent="1" edge="1">
          <mxGeometry width="50" height="50" relative="1" as="geometry">
            <mxPoint x="525" y="740" as="sourcePoint" />
            <mxPoint x="325" y="740" as="targetPoint" />
          </mxGeometry>
        </mxCell>
        <mxCell id="S6kM-z7FGtX7wg2L0dCq-91" style="edgeStyle=orthogonalEdgeStyle;rounded=0;orthogonalLoop=1;jettySize=auto;html=1;entryX=0.5;entryY=1;entryDx=0;entryDy=0;startArrow=openThin;startFill=0;endArrow=none;endFill=0;" parent="1" target="S6kM-z7FGtX7wg2L0dCq-88" edge="1">
          <mxGeometry relative="1" as="geometry">
            <mxPoint x="525" y="750" as="sourcePoint" />
            <mxPoint x="745" y="426.5" as="targetPoint" />
            <Array as="points">
              <mxPoint x="740" y="750" />
              <mxPoint x="740" y="380" />
            </Array>
          </mxGeometry>
        </mxCell>
        <mxCell id="S6kM-z7FGtX7wg2L0dCq-78" value="Пользователь вводит текст на скорость" style="shape=parallelogram;perimeter=parallelogramPerimeter;whiteSpace=wrap;html=1;fixedSize=1;align=center;" parent="1" vertex="1">
          <mxGeometry x="465" y="780" width="120" height="60" as="geometry" />
        </mxCell>
        <mxCell id="S6kM-z7FGtX7wg2L0dCq-87" value="" style="endArrow=none;html=1;entryX=0.484;entryY=1.009;entryDx=0;entryDy=0;entryPerimeter=0;exitX=0.5;exitY=0;exitDx=0;exitDy=0;" parent="1" source="S6kM-z7FGtX7wg2L0dCq-46" target="S6kM-z7FGtX7wg2L0dCq-42" edge="1">
          <mxGeometry width="50" height="50" relative="1" as="geometry">
            <mxPoint x="326" y="690" as="sourcePoint" />
            <mxPoint x="326" y="660" as="targetPoint" />
          </mxGeometry>
        </mxCell>
        <mxCell id="S6kM-z7FGtX7wg2L0dCq-88" value="&lt;p style=&quot;line-height: 120%&quot;&gt;&amp;nbsp; &amp;nbsp; Пользователь выбирает сложность&lt;/p&gt;" style="shape=parallelogram;perimeter=parallelogramPerimeter;whiteSpace=wrap;html=1;fixedSize=1;align=center;" parent="1" vertex="1">
          <mxGeometry x="675" y="320" width="140" height="60" as="geometry" />
        </mxCell>
        <mxCell id="S6kM-z7FGtX7wg2L0dCq-134" value="&lt;div&gt;&lt;span&gt;Способ завершения текста автоматически поставлен на &quot;с ограничем по словам&quot;&lt;/span&gt;&lt;/div&gt;" style="rounded=0;whiteSpace=wrap;html=1;align=center;" parent="1" vertex="1">
          <mxGeometry x="685" y="420" width="120" height="93" as="geometry" />
        </mxCell>
        <mxCell id="S6kM-z7FGtX7wg2L0dCq-135" value="" style="endArrow=open;html=1;endFill=0;" parent="1" edge="1">
          <mxGeometry width="50" height="50" relative="1" as="geometry">
            <mxPoint x="535" y="390" as="sourcePoint" />
            <mxPoint x="740" y="390" as="targetPoint" />
          </mxGeometry>
        </mxCell>
        <mxCell id="S6kM-z7FGtX7wg2L0dCq-136" value="" style="endArrow=none;html=1;entryX=0.5;entryY=1;entryDx=0;entryDy=0;" parent="1" target="S6kM-z7FGtX7wg2L0dCq-41" edge="1">
          <mxGeometry width="50" height="50" relative="1" as="geometry">
            <mxPoint x="535" y="390" as="sourcePoint" />
            <mxPoint x="585" y="340" as="targetPoint" />
          </mxGeometry>
        </mxCell>
        <mxCell id="AXhJduNCn89iZ7PoZaSN-2" value="" style="endArrow=none;html=1;startSize=14;endSize=14;sourcePerimeterSpacing=8;targetPerimeterSpacing=8;entryX=0.5;entryY=1;entryDx=0;entryDy=0;" edge="1" parent="1" target="S6kM-z7FGtX7wg2L0dCq-4">
          <mxGeometry width="50" height="50" relative="1" as="geometry">
            <mxPoint x="410" y="120" as="sourcePoint" />
            <mxPoint x="410" y="110" as="targetPoint" />
          </mxGeometry>
        </mxCell>
        <mxCell id="AXhJduNCn89iZ7PoZaSN-3" value="Пользователь решает!" style="rhombus;whiteSpace=wrap;html=1;hachureGap=4;pointerEvents=0;" vertex="1" parent="1">
          <mxGeometry x="350" y="120" width="120" height="80" as="geometry" />
        </mxCell>
        <mxCell id="AXhJduNCn89iZ7PoZaSN-4" value="" style="endArrow=none;html=1;startSize=14;endSize=14;sourcePerimeterSpacing=8;targetPerimeterSpacing=8;entryX=0;entryY=0.5;entryDx=0;entryDy=0;" edge="1" parent="1" target="AXhJduNCn89iZ7PoZaSN-3">
          <mxGeometry width="50" height="50" relative="1" as="geometry">
            <mxPoint x="120" y="160" as="sourcePoint" />
            <mxPoint x="290" y="180" as="targetPoint" />
          </mxGeometry>
        </mxCell>
        <mxCell id="AXhJduNCn89iZ7PoZaSN-5" value="" style="endArrow=open;html=1;startSize=14;endSize=6;sourcePerimeterSpacing=8;targetPerimeterSpacing=8;endFill=0;" edge="1" parent="1">
          <mxGeometry width="50" height="50" relative="1" as="geometry">
            <mxPoint x="120" y="160" as="sourcePoint" />
            <mxPoint x="120" y="210" as="targetPoint" />
          </mxGeometry>
        </mxCell>
        <mxCell id="AXhJduNCn89iZ7PoZaSN-6" value="Пользователь решил изменить внешний вид приложения" style="text;html=1;strokeColor=none;fillColor=none;align=center;verticalAlign=middle;whiteSpace=wrap;rounded=0;hachureGap=4;pointerEvents=0;" vertex="1" parent="1">
          <mxGeometry x="190" y="130" width="180" height="20" as="geometry" />
        </mxCell>
        <mxCell id="AXhJduNCn89iZ7PoZaSN-9" value="&amp;nbsp; &amp;nbsp; &amp;nbsp; &amp;nbsp; &amp;nbsp;Пользователь изменяет&amp;nbsp; &amp;nbsp; &amp;nbsp; &amp;nbsp;цветовое оформление и&amp;nbsp; &amp;nbsp;звук по своему желанию из предложенных вариантов" style="shape=parallelogram;perimeter=parallelogramPerimeter;whiteSpace=wrap;html=1;fixedSize=1;hachureGap=4;pointerEvents=0;" vertex="1" parent="1">
          <mxGeometry x="30" y="210" width="180" height="60" as="geometry" />
        </mxCell>
        <mxCell id="AXhJduNCn89iZ7PoZaSN-11" value="1" style="ellipse;whiteSpace=wrap;html=1;aspect=fixed;hachureGap=4;pointerEvents=0;" vertex="1" parent="1">
          <mxGeometry x="635" y="90" width="40" height="40" as="geometry" />
        </mxCell>
        <mxCell id="AXhJduNCn89iZ7PoZaSN-12" value="" style="endArrow=open;html=1;startSize=14;endSize=6;sourcePerimeterSpacing=8;targetPerimeterSpacing=8;endFill=0;exitX=0;exitY=0.5;exitDx=0;exitDy=0;" edge="1" parent="1" source="AXhJduNCn89iZ7PoZaSN-11">
          <mxGeometry width="50" height="50" relative="1" as="geometry">
            <mxPoint x="590" y="170" as="sourcePoint" />
            <mxPoint x="410" y="110" as="targetPoint" />
          </mxGeometry>
        </mxCell>
        <mxCell id="AXhJduNCn89iZ7PoZaSN-13" value="1" style="ellipse;whiteSpace=wrap;html=1;aspect=fixed;hachureGap=4;pointerEvents=0;" vertex="1" parent="1">
          <mxGeometry x="100" y="280" width="40" height="40" as="geometry" />
        </mxCell>
        <mxCell id="AXhJduNCn89iZ7PoZaSN-14" value="" style="endArrow=none;html=1;startSize=14;endSize=14;sourcePerimeterSpacing=8;targetPerimeterSpacing=8;exitX=0.5;exitY=1;exitDx=0;exitDy=0;endFill=0;entryX=0.5;entryY=0;entryDx=0;entryDy=0;" edge="1" parent="1" source="AXhJduNCn89iZ7PoZaSN-9" target="AXhJduNCn89iZ7PoZaSN-13">
          <mxGeometry width="50" height="50" relative="1" as="geometry">
            <mxPoint x="80" y="400" as="sourcePoint" />
            <mxPoint x="130" y="350" as="targetPoint" />
          </mxGeometry>
        </mxCell>
        <mxCell id="AXhJduNCn89iZ7PoZaSN-15" value="" style="endArrow=none;html=1;startSize=14;endSize=14;sourcePerimeterSpacing=8;targetPerimeterSpacing=8;" edge="1" parent="1">
          <mxGeometry width="50" height="50" relative="1" as="geometry">
            <mxPoint x="470" y="160" as="sourcePoint" />
            <mxPoint x="535.5" y="160" as="targetPoint" />
          </mxGeometry>
        </mxCell>
        <mxCell id="AXhJduNCn89iZ7PoZaSN-16" value="Пользователь решил изменить настройки текста" style="text;html=1;strokeColor=none;fillColor=none;align=center;verticalAlign=middle;whiteSpace=wrap;rounded=0;hachureGap=4;pointerEvents=0;" vertex="1" parent="1">
          <mxGeometry x="465" y="130" width="175" height="20" as="geometry" />
        </mxCell>
        <mxCell id="AXhJduNCn89iZ7PoZaSN-17" value="2" style="ellipse;whiteSpace=wrap;html=1;aspect=fixed;hachureGap=4;pointerEvents=0;" vertex="1" parent="1">
          <mxGeometry x="390" y="210" width="40" height="40" as="geometry" />
        </mxCell>
        <mxCell id="AXhJduNCn89iZ7PoZaSN-18" value="" style="endArrow=none;html=1;startSize=14;endSize=14;sourcePerimeterSpacing=8;targetPerimeterSpacing=8;entryX=0.5;entryY=1;entryDx=0;entryDy=0;exitX=0.5;exitY=0;exitDx=0;exitDy=0;" edge="1" parent="1" source="AXhJduNCn89iZ7PoZaSN-17" target="AXhJduNCn89iZ7PoZaSN-3">
          <mxGeometry width="50" height="50" relative="1" as="geometry">
            <mxPoint x="350" y="250" as="sourcePoint" />
            <mxPoint x="400" y="200" as="targetPoint" />
          </mxGeometry>
        </mxCell>
        <mxCell id="AXhJduNCn89iZ7PoZaSN-19" value="Пользователь решил начать набор текста&lt;br&gt;с предыдущими/изначальными настройками" style="text;html=1;strokeColor=none;fillColor=none;align=center;verticalAlign=middle;whiteSpace=wrap;rounded=0;hachureGap=4;pointerEvents=0;" vertex="1" parent="1">
          <mxGeometry x="247.5" y="210" width="155" height="20" as="geometry" />
        </mxCell>
        <mxCell id="AXhJduNCn89iZ7PoZaSN-21" value="" style="edgeStyle=none;curved=1;rounded=0;orthogonalLoop=1;jettySize=auto;html=1;endArrow=openThin;endFill=0;startSize=14;endSize=6;sourcePerimeterSpacing=8;targetPerimeterSpacing=8;exitX=0.99;exitY=0.438;exitDx=0;exitDy=0;exitPerimeter=0;" edge="1" parent="1" source="AXhJduNCn89iZ7PoZaSN-20">
          <mxGeometry relative="1" as="geometry">
            <mxPoint x="450" y="765" as="sourcePoint" />
            <mxPoint x="525" y="760" as="targetPoint" />
          </mxGeometry>
        </mxCell>
        <mxCell id="AXhJduNCn89iZ7PoZaSN-20" value="2" style="ellipse;whiteSpace=wrap;html=1;aspect=fixed;hachureGap=4;pointerEvents=0;" vertex="1" parent="1">
          <mxGeometry x="390" y="745" width="35" height="35" as="geometry" />
        </mxCell>
        <mxCell id="AXhJduNCn89iZ7PoZaSN-23" value="" style="endArrow=none;html=1;startSize=14;endSize=6;sourcePerimeterSpacing=8;targetPerimeterSpacing=8;entryX=0.462;entryY=1.008;entryDx=0;entryDy=0;entryPerimeter=0;" edge="1" parent="1" target="S6kM-z7FGtX7wg2L0dCq-78">
          <mxGeometry width="50" height="50" relative="1" as="geometry">
            <mxPoint x="520" y="850" as="sourcePoint" />
            <mxPoint x="540" y="860" as="targetPoint" />
          </mxGeometry>
        </mxCell>
        <mxCell id="AXhJduNCn89iZ7PoZaSN-25" value="Завершение набора текста по истечению времени/слов" style="rounded=0;whiteSpace=wrap;html=1;hachureGap=4;pointerEvents=0;" vertex="1" parent="1">
          <mxGeometry x="465" y="850" width="120" height="60" as="geometry" />
        </mxCell>
        <mxCell id="AXhJduNCn89iZ7PoZaSN-27" value="" style="endArrow=none;html=1;startSize=14;endSize=6;sourcePerimeterSpacing=8;targetPerimeterSpacing=8;entryX=0.5;entryY=1;entryDx=0;entryDy=0;exitX=0.5;exitY=0;exitDx=0;exitDy=0;" edge="1" parent="1" target="AXhJduNCn89iZ7PoZaSN-25">
          <mxGeometry width="50" height="50" relative="1" as="geometry">
            <mxPoint x="525" y="919.9999999999998" as="sourcePoint" />
            <mxPoint x="380" y="920" as="targetPoint" />
          </mxGeometry>
        </mxCell>
        <mxCell id="AXhJduNCn89iZ7PoZaSN-28" value="&amp;nbsp; Вывод статистики по тексту" style="shape=parallelogram;perimeter=parallelogramPerimeter;whiteSpace=wrap;html=1;fixedSize=1;hachureGap=4;pointerEvents=0;" vertex="1" parent="1">
          <mxGeometry x="465" y="920" width="120" height="60" as="geometry" />
        </mxCell>
        <mxCell id="AXhJduNCn89iZ7PoZaSN-29" value="" style="endArrow=none;html=1;startSize=14;endSize=6;sourcePerimeterSpacing=8;targetPerimeterSpacing=8;entryX=0.5;entryY=1;entryDx=0;entryDy=0;" edge="1" parent="1" target="AXhJduNCn89iZ7PoZaSN-28">
          <mxGeometry width="50" height="50" relative="1" as="geometry">
            <mxPoint x="525" y="990" as="sourcePoint" />
            <mxPoint x="570" y="1030" as="targetPoint" />
          </mxGeometry>
        </mxCell>
        <mxCell id="AXhJduNCn89iZ7PoZaSN-30" value="1" style="ellipse;whiteSpace=wrap;html=1;aspect=fixed;hachureGap=4;pointerEvents=0;" vertex="1" parent="1">
          <mxGeometry x="635" y="1095" width="40" height="40" as="geometry" />
        </mxCell>
        <mxCell id="AXhJduNCn89iZ7PoZaSN-39" style="edgeStyle=none;curved=1;rounded=0;orthogonalLoop=1;jettySize=auto;html=1;endArrow=openThin;endFill=0;startSize=14;endSize=6;sourcePerimeterSpacing=8;targetPerimeterSpacing=8;entryX=0.5;entryY=0;entryDx=0;entryDy=0;" edge="1" parent="1" target="AXhJduNCn89iZ7PoZaSN-33">
          <mxGeometry relative="1" as="geometry">
            <mxPoint x="379" y="1029.9999999999998" as="targetPoint" />
            <mxPoint x="394" y="1040" as="sourcePoint" />
          </mxGeometry>
        </mxCell>
        <mxCell id="AXhJduNCn89iZ7PoZaSN-33" value="Конец" style="rounded=1;whiteSpace=wrap;html=1;hachureGap=4;pointerEvents=0;" vertex="1" parent="1">
          <mxGeometry x="334" y="1100" width="120" height="30" as="geometry" />
        </mxCell>
        <mxCell id="AXhJduNCn89iZ7PoZaSN-35" value="&amp;nbsp;Пользователь решает завершить ли&amp;nbsp; работу приложения" style="rhombus;whiteSpace=wrap;html=1;hachureGap=4;pointerEvents=0;" vertex="1" parent="1">
          <mxGeometry x="462.5" y="990" width="125" height="100" as="geometry" />
        </mxCell>
        <mxCell id="AXhJduNCn89iZ7PoZaSN-36" value="" style="endArrow=none;html=1;startSize=14;endSize=6;sourcePerimeterSpacing=8;targetPerimeterSpacing=8;entryX=0;entryY=0.5;entryDx=0;entryDy=0;" edge="1" parent="1" target="AXhJduNCn89iZ7PoZaSN-35">
          <mxGeometry width="50" height="50" relative="1" as="geometry">
            <mxPoint x="394" y="1040" as="sourcePoint" />
            <mxPoint x="460" y="1040" as="targetPoint" />
          </mxGeometry>
        </mxCell>
        <mxCell id="AXhJduNCn89iZ7PoZaSN-37" value="Работа приложения завершена" style="text;html=1;strokeColor=none;fillColor=none;align=center;verticalAlign=middle;whiteSpace=wrap;rounded=0;hachureGap=4;pointerEvents=0;" vertex="1" parent="1">
          <mxGeometry x="414" y="1000" width="40" height="20" as="geometry" />
        </mxCell>
        <mxCell id="AXhJduNCn89iZ7PoZaSN-41" style="edgeStyle=none;curved=1;rounded=0;orthogonalLoop=1;jettySize=auto;html=1;endArrow=openThin;endFill=0;startSize=14;endSize=6;sourcePerimeterSpacing=8;targetPerimeterSpacing=8;entryX=0.5;entryY=0;entryDx=0;entryDy=0;" edge="1" parent="1">
          <mxGeometry relative="1" as="geometry">
            <mxPoint x="654.58" y="1094.9999999999998" as="targetPoint" />
            <mxPoint x="655" y="1040" as="sourcePoint" />
          </mxGeometry>
        </mxCell>
        <mxCell id="AXhJduNCn89iZ7PoZaSN-42" value="" style="endArrow=none;html=1;startSize=14;endSize=6;sourcePerimeterSpacing=8;targetPerimeterSpacing=8;" edge="1" parent="1">
          <mxGeometry width="50" height="50" relative="1" as="geometry">
            <mxPoint x="586" y="1039.5799999999997" as="sourcePoint" />
            <mxPoint x="655" y="1040" as="targetPoint" />
          </mxGeometry>
        </mxCell>
        <mxCell id="AXhJduNCn89iZ7PoZaSN-43" value="Работа приложения продолжается" style="text;html=1;strokeColor=none;fillColor=none;align=center;verticalAlign=middle;whiteSpace=wrap;rounded=0;hachureGap=4;pointerEvents=0;" vertex="1" parent="1">
          <mxGeometry x="605" y="1000" width="40" height="20" as="geometry" />
        </mxCell>
        <mxCell id="AXhJduNCn89iZ7PoZaSN-45" value="Не доцент" style="text;html=1;strokeColor=none;fillColor=none;align=center;verticalAlign=middle;whiteSpace=wrap;rounded=0;hachureGap=4;pointerEvents=0;fontSize=16;fontColor=#FFFFFF;" vertex="1" parent="1">
          <mxGeometry x="20" y="1135" width="40" height="20" as="geometry" />
        </mxCell>
      </root>
    </mxGraphModel>
  </diagram>
</mxfile>
